<svg xmlns="http://www.w3.org/2000/svg" viewBox="0 0 64 64" width="64" height="64">
  <!-- Background rounded rectangle -->
  <rect x="4" y="4" width="56" height="56" rx="8" ry="8" fill="#6366f1"/>

  <!-- Film strip holes - top -->
  <rect x="8" y="8" width="6" height="6" rx="1" fill="#fff"/>
  <rect x="18" y="8" width="6" height="6" rx="1" fill="#fff"/>
  <rect x="28" y="8" width="6" height="6" rx="1" fill="#fff"/>
  <rect x="38" y="8" width="6" height="6" rx="1" fill="#fff"/>
  <rect x="48" y="8" width="6" height="6" rx="1" fill="#fff"/>

  <!-- Film strip holes - bottom -->
  <rect x="8" y="50" width="6" height="6" rx="1" fill="#fff"/>
  <rect x="18" y="50" width="6" height="6" rx="1" fill="#fff"/>
  <rect x="28" y="50" width="6" height="6" rx="1" fill="#fff"/>
  <rect x="38" y="50" width="6" height="6" rx="1" fill="#fff"/>
  <rect x="48" y="50" width="6" height="6" rx="1" fill="#fff"/>

  <!-- GIF text -->
  <text x="32" y="38" font-family="Arial, sans-serif" font-size="18" font-weight="bold" fill="#fff" text-anchor="middle">GIF</text>
</svg>
